# xmcd
#
# Track frame offsets: 
#        150
#        18353
#        35643
#        52374
#        71746
#        97652
#        115026
#        137142
#        157127
#        173328
#        191185
#        198473
#        256279
#
# Disc length: 4440 seconds
#
# Revision: 7
# Processed by: cddbd v1.5.2PL0 Copyright (c) Steve Scherf et al.
# Submitted via: ExactAudioCopyFreeDBPlugin 1.0
#
DISCID=b811560d
DTITLE=Keziah Jones - Black Orpheus {LimEd,Delabel,7243 5969520 4} CD1
DYEAR=2003
DGENRE=Funk
TTITLE0=AfrosurrealismfortheLadies
TTITLE1=Kpafuca
TTITLE2=Femiliarise
TTITLE3=Wet Questions
TTITLE4=Neptune
TTITLE5=72 Kilos
TTITLE6=All Praises
TTITLE7=Beautiful Emilie
TTITLE8=Sadness Is...
TTITLE9=Autumn Moon
TTITLE10=Black Orpheus
TTITLE11=Orin O' Lomi
TTITLE12=DATA
EXTD=YEAR: 2003
EXTT0=
EXTT1=
EXTT2=
EXTT3=
EXTT4=
EXTT5=
EXTT6=
EXTT7=
EXTT8=
EXTT9=
EXTT10=
EXTT11=
EXTT12=
PLAYORDER=
